HIERARCHY
ROOT hip
{
	OFFSET 0.000000 0.000000 0.000000
	CHANNELS 6 Xposition Yposition Zposition Xrotation Zrotation Yrotation
	JOINT abdomen
	{
		OFFSET 0.000000 0.000000 0.000000
		CHANNELS 6 Xposition Yposition Zposition Xrotation Zrotation Yrotation
		JOINT chest
		{
			OFFSET 0.000000 1.882227 5.018153
			CHANNELS 3 Xrotation Zrotation Yrotation
			JOINT neckDummy
			{
				OFFSET 0.000000 -0.784898 8.316448
				CHANNELS 3 Xrotation Yrotation Zrotation
				JOINT neck
				{
					OFFSET 0.000000 0.392801 2.280412
					CHANNELS 6 Xposition Yposition Zposition Xrotation Zrotation Yrotation
					JOINT head
					{
						OFFSET 0.000000 -0.529470 3.496879
						CHANNELS 6 Xposition Yposition Zposition Xrotation Zrotation Yrotation
						JOINT figureHair
						{
							OFFSET 0.000000 -0.720623 4.699570
							CHANNELS 6 Xposition Yposition Zposition Zrotation Yrotation Xrotation
							End Site
							{
								OFFSET 0.000000 0.000001 -6.419331
							}
						}
					}
				}
			}
			JOINT lCollar
			{
				OFFSET 0.599237 -0.784898 8.316446
				CHANNELS 6 Xposition Yposition Zposition Yrotation Zrotation Xrotation
				JOINT lShldr
				{
					OFFSET 6.421198 0.332128 0.010146
					CHANNELS 6 Xposition Yposition Zposition Zrotation Yrotation Xrotation
					JOINT lForeArm
					{
						OFFSET 10.552782 -0.125508 0.025574
						CHANNELS 6 Xposition Yposition Zposition Yrotation Zrotation Xrotation
						JOINT lHand
						{
							OFFSET 11.035963 -0.041520 0.319619
							CHANNELS 6 Xposition Yposition Zposition Zrotation Yrotation Xrotation
							End Site
							{
								OFFSET 10.353752 0.000000 0.000000
							}
						}
					}
				}
			}
			JOINT rCollar
			{
				OFFSET -0.599237 -0.784898 8.316446
				CHANNELS 6 Xposition Yposition Zposition Yrotation Zrotation Xrotation
				JOINT rShldr
				{
					OFFSET -6.421198 0.332128 0.010146
					CHANNELS 6 Xposition Yposition Zposition Zrotation Yrotation Xrotation
					JOINT rForeArm
					{
						OFFSET -10.552782 -0.125508 0.025574
						CHANNELS 6 Xposition Yposition Zposition Yrotation Zrotation Xrotation
						JOINT rHand
						{
							OFFSET -11.035963 -0.041520 0.319619
							CHANNELS 6 Xposition Yposition Zposition Zrotation Yrotation Xrotation
							End Site
							{
								OFFSET -10.353752 0.000000 0.000000
							}
						}
					}
				}
			}
		}
	}
	JOINT lThigh
	{
		OFFSET 4.500466 1.832697 -6.400484
		CHANNELS 6 Xposition Yposition Zposition Xrotation Zrotation Yrotation
		JOINT lShin
		{
			OFFSET -1.359117 -1.179884 -18.918690
			CHANNELS 6 Xposition Yposition Zposition Xrotation Zrotation Yrotation
			JOINT lFoot
			{
				OFFSET -0.652380 0.312140 -17.215185
				CHANNELS 6 Xposition Yposition Zposition Xrotation Yrotation Zrotation
				End Site
				{
					OFFSET 0.000000 -10.353752 0.000000
				}
			}
		}
	}
	JOINT rThigh
	{
		OFFSET -4.500466 1.832697 -6.400484
		CHANNELS 6 Xposition Yposition Zposition Xrotation Zrotation Yrotation
		JOINT rShin
		{
			OFFSET 1.359117 -1.179884 -18.918690
			CHANNELS 6 Xposition Yposition Zposition Xrotation Zrotation Yrotation
			JOINT rFoot
			{
				OFFSET 0.652380 0.312140 -17.215185
				CHANNELS 6 Xposition Yposition Zposition Xrotation Yrotation Zrotation
				End Site
				{
					OFFSET 0.000000 -10.353752 0.000000
				}
			}
		}
	}
}
MOTION
Frames: 1
Frame Time: 0.041667
0.000000 -0.000008 42.534355 -0.000002 -0.000000 0.000000 0.000000 0.000001 -0.000003 0.000000 -0.000000 0.000000 -0.000000 -0.000000 0.000000 -0.000000 0.000000 -0.000000 0.000000 0.392800 2.280412 0.000000 -0.000000 0.000000 0.000000 -0.529468 3.496877 0.000000 -0.000000 0.000000 0.000000 -0.720622 4.699574 0.000000 -0.000000 0.000000 0.599237 -0.784899 8.316447 0.000000 -0.000000 -0.000000 6.421197 0.332127 0.010149 -0.000000 0.000000 0.000000 10.552782 -0.125508 0.025577 0.000000 -0.000000 0.000000 11.035967 -0.041520 0.319613 0.000000 -0.000000 0.000000 -0.599237 -0.784899 8.316447 -0.000000 0.000000 -0.000000 -6.421197 0.332127 0.010149 0.000000 -0.000000 0.000000 -10.552782 -0.125508 0.025577 -0.000000 0.000000 0.000000 -11.035967 -0.041520 0.319613 -0.000000 0.000000 0.000000 4.500466 1.832698 -6.400486 -0.000002 -0.000000 0.000000 -1.359117 -1.179884 -18.918692 0.000000 0.000002 0.000000 -0.652380 0.312140 -17.215189 0.000000 -0.000000 0.000001 -4.500466 1.832698 -6.400486 -0.000002 0.000000 -0.000000 1.359117 -1.179884 -18.918692 0.000000 -0.000002 -0.000000 0.652380 0.312140 -17.215189 0.000000 0.000000 -0.000001 
